<svg xmlns="http://www.w3.org/2000/svg" xmlns:xlink="http://www.w3.org/1999/xlink" viewBox="0 0 191.64 57.24"><defs><style>.cls-1{fill:#575756;}.cls-2{fill:url(#linear-gradient);}.cls-3{fill:url(#Orange_Yellow);}</style><linearGradient id="linear-gradient" y1="28.62" x2="40.71" y2="28.62" gradientUnits="userSpaceOnUse"><stop offset="0" stop-color="#e8454b"/><stop offset="1" stop-color="#964091"/></linearGradient><linearGradient id="Orange_Yellow" x1="11.56" y1="28.86" x2="27.3" y2="28.86" gradientUnits="userSpaceOnUse"><stop offset="0" stop-color="#ffef26"/><stop offset="0.02" stop-color="#ffea21"/><stop offset="0.1" stop-color="#fed70f"/><stop offset="0.19" stop-color="#fdcc04"/><stop offset="0.28" stop-color="#fdc800"/><stop offset="0.67" stop-color="#f18f34"/><stop offset="0.89" stop-color="#e95f32"/><stop offset="1" stop-color="#e3312d"/></linearGradient></defs><g id="Layer_2" data-name="Layer 2"><g id="Layer_1_copy" data-name="Layer 1 copy"><path class="cls-1" d="M57.31,47.09H55.15l-.43,1h-.83l2-4.32h.79l1.95,4.32h-.84ZM57,46.46l-.81-1.89-.81,1.89Z"/><path class="cls-1" d="M62.23,44.79v2.8a1.55,1.55,0,0,1-1.78,1.74,2.62,2.62,0,0,1-1.6-.47l.34-.58a2,2,0,0,0,1.22.4c.73,0,1.05-.34,1.05-1V47.5a1.44,1.44,0,0,1-1.11.44,1.59,1.59,0,1,1,0-3.18,1.45,1.45,0,0,1,1.15.47v-.44Zm-.76,1.55a1,1,0,1,0-1,.95A.93.93,0,0,0,61.47,46.34Z"/><path class="cls-1" d="M66.27,46.69H63.68a1,1,0,0,0,1.07.79,1.17,1.17,0,0,0,.89-.36l.42.48a1.86,1.86,0,0,1-3.15-1.16,1.63,1.63,0,0,1,1.7-1.68,1.61,1.61,0,0,1,1.67,1.7C66.28,46.52,66.27,46.62,66.27,46.69Zm-2.6-.51h1.87a.89.89,0,0,0-.93-.81A.92.92,0,0,0,63.67,46.18Z"/><path class="cls-1" d="M70.2,46.2v1.89h-.77V46.3c0-.59-.29-.87-.78-.87a.87.87,0,0,0-.92,1v1.67H67v-3.3h.73v.43a1.43,1.43,0,0,1,1.14-.46A1.28,1.28,0,0,1,70.2,46.2Z"/><path class="cls-1" d="M70.88,46.44a1.67,1.67,0,0,1,1.78-1.68,1.48,1.48,0,0,1,1.41.76l-.59.35a.93.93,0,0,0-.82-.46,1,1,0,0,0,0,2.06,1,1,0,0,0,.82-.45l.59.34a1.49,1.49,0,0,1-1.41.77A1.67,1.67,0,0,1,70.88,46.44Z"/><path class="cls-1" d="M77.71,46.69H75.12a1,1,0,0,0,1.07.79,1.21,1.21,0,0,0,.9-.36l.41.48a1.86,1.86,0,0,1-3.15-1.16,1.64,1.64,0,0,1,1.71-1.68,1.6,1.6,0,0,1,1.66,1.7A1.85,1.85,0,0,1,77.71,46.69Zm-2.59-.51H77a.9.9,0,0,0-.93-.81A.92.92,0,0,0,75.12,46.18Z"/><path class="cls-1" d="M83.27,43.51v4.58h-.74v-.43a1.34,1.34,0,0,1-1.09.47,1.69,1.69,0,0,1,0-3.37,1.36,1.36,0,0,1,1.06.44V43.51Zm-.76,2.93a1,1,0,1,0-1,1A1,1,0,0,0,82.51,46.44Z"/><path class="cls-1" d="M87.3,46.69H84.72a1,1,0,0,0,1.06.79,1.18,1.18,0,0,0,.9-.36l.41.48A1.85,1.85,0,0,1,84,46.44a1.63,1.63,0,0,1,1.7-1.68,1.61,1.61,0,0,1,1.67,1.7A2,2,0,0,1,87.3,46.69Zm-2.59-.51h1.87a.89.89,0,0,0-.93-.81A.92.92,0,0,0,84.71,46.18Z"/><path class="cls-1" d="M89.36,46.44a1.67,1.67,0,0,1,1.79-1.68,1.47,1.47,0,0,1,1.4.76l-.59.35a.92.92,0,0,0-.82-.46,1,1,0,0,0,0,2.06A.93.93,0,0,0,92,47l.59.34a1.47,1.47,0,0,1-1.4.77A1.67,1.67,0,0,1,89.36,46.44Z"/><path class="cls-1" d="M92.84,46.44a1.76,1.76,0,1,1,1.75,1.69A1.66,1.66,0,0,1,92.84,46.44Zm2.73,0a1,1,0,1,0-1,1A1,1,0,0,0,95.57,46.44Z"/><path class="cls-1" d="M102.54,46.2v1.89h-.78V46.3c0-.59-.27-.87-.74-.87s-.85.33-.85,1v1.67h-.78V46.3c0-.59-.27-.87-.74-.87s-.85.33-.85,1v1.67H97v-3.3h.73v.42a1.39,1.39,0,0,1,1.08-.45,1.24,1.24,0,0,1,1.11.55,1.54,1.54,0,0,1,1.23-.55A1.27,1.27,0,0,1,102.54,46.2Z"/><path class="cls-1" d="M109,46.2v1.89h-.77V46.3c0-.59-.27-.87-.74-.87s-.86.33-.86,1v1.67h-.77V46.3c0-.59-.27-.87-.74-.87s-.86.33-.86,1v1.67h-.77v-3.3h.73v.42a1.39,1.39,0,0,1,1.08-.45,1.22,1.22,0,0,1,1.11.55,1.55,1.55,0,0,1,1.24-.55A1.26,1.26,0,0,1,109,46.2Z"/><path class="cls-1" d="M113.08,44.79v3.3h-.73v-.42a1.36,1.36,0,0,1-1.06.46,1.3,1.3,0,0,1-1.42-1.45V44.79h.77v1.78c0,.6.29.88.77.88a.86.86,0,0,0,.9-1V44.79Z"/><path class="cls-1" d="M117.28,46.2v1.89h-.77V46.3c0-.59-.29-.87-.79-.87a.87.87,0,0,0-.91,1v1.67H114v-3.3h.74v.43a1.42,1.42,0,0,1,1.13-.46A1.29,1.29,0,0,1,117.28,46.2Z"/><path class="cls-1" d="M118.09,43.79a.47.47,0,0,1,.5-.46.46.46,0,0,1,.49.44.5.5,0,0,1-1,0Zm.11,1H119v3.3h-.77Z"/><path class="cls-1" d="M119.65,46.44a1.67,1.67,0,0,1,1.78-1.68,1.48,1.48,0,0,1,1.41.76l-.59.35a.93.93,0,0,0-.82-.46,1,1,0,0,0,0,2.06,1,1,0,0,0,.82-.45l.59.34a1.49,1.49,0,0,1-1.41.77A1.67,1.67,0,0,1,119.65,46.44Z"/><path class="cls-1" d="M126.2,46.16v1.93h-.73v-.4a1.16,1.16,0,0,1-1,.44c-.76,0-1.23-.41-1.23-1s.37-1,1.37-1h.85v0c0-.46-.27-.72-.82-.72a1.6,1.6,0,0,0-1,.33l-.3-.57a2.31,2.31,0,0,1,1.39-.4C125.65,44.76,126.2,45.21,126.2,46.16Zm-.77.9v-.38h-.8c-.52,0-.66.19-.66.44s.23.45.63.45A.84.84,0,0,0,125.43,47.06Z"/><path class="cls-1" d="M129.11,47.91a1.22,1.22,0,0,1-.74.22A1,1,0,0,1,127.23,47V45.44h-.54v-.62h.54v-.75H128v.75h.88v.62H128V47c0,.32.16.5.46.5a.71.71,0,0,0,.43-.14Z"/><path class="cls-1" d="M129.57,43.79a.47.47,0,0,1,.5-.46.46.46,0,0,1,.49.44.5.5,0,0,1-1,0Zm.11,1h.77v3.3h-.77Z"/><path class="cls-1" d="M131.13,46.44a1.76,1.76,0,1,1,1.75,1.69A1.66,1.66,0,0,1,131.13,46.44Zm2.73,0a1,1,0,1,0-1,1A1,1,0,0,0,133.86,46.44Z"/><path class="cls-1" d="M138.56,46.2v1.89h-.77V46.3c0-.59-.29-.87-.78-.87a.87.87,0,0,0-.92,1v1.67h-.77v-3.3h.73v.43a1.46,1.46,0,0,1,1.14-.46A1.28,1.28,0,0,1,138.56,46.2Z"/><path class="cls-1" d="M144.21,46.69h-2.59a1,1,0,0,0,1.07.79,1.21,1.21,0,0,0,.9-.36l.41.48a1.86,1.86,0,0,1-3.15-1.16,1.64,1.64,0,0,1,1.71-1.68,1.6,1.6,0,0,1,1.66,1.7A1.85,1.85,0,0,1,144.21,46.69Zm-2.59-.51h1.87a.9.9,0,0,0-.93-.81A.92.92,0,0,0,141.62,46.18Z"/><path class="cls-1" d="M146.88,47.91a1.18,1.18,0,0,1-.74.22A1,1,0,0,1,145,47V45.44h-.54v-.62H145v-.75h.78v.75h.88v.62h-.88V47c0,.32.16.5.45.5a.69.69,0,0,0,.43-.14Z"/><path class="cls-1" d="M152.18,46.69h-2.59a1,1,0,0,0,1.07.79,1.21,1.21,0,0,0,.9-.36l.41.48a1.86,1.86,0,0,1-3.15-1.16,1.64,1.64,0,0,1,1.71-1.68,1.6,1.6,0,0,1,1.66,1.7A1.85,1.85,0,0,1,152.18,46.69Zm-2.59-.51h1.87a.9.9,0,0,0-.93-.81A.92.92,0,0,0,149.59,46.18Zm1.07-1.84H150l.83-.84h.91Z"/><path class="cls-1" d="M155.89,44.79l-1.41,3.3h-.8l-1.41-3.3h.8l1,2.45,1.05-2.45Z"/><path class="cls-1" d="M159.31,46.69h-2.59a1,1,0,0,0,1.07.79,1.17,1.17,0,0,0,.89-.36l.42.48A1.86,1.86,0,0,1,156,46.44a1.63,1.63,0,0,1,1.7-1.68,1.61,1.61,0,0,1,1.67,1.7C159.32,46.52,159.31,46.62,159.31,46.69Zm-2.6-.51h1.87a.89.89,0,0,0-.93-.81A.92.92,0,0,0,156.71,46.18Zm1.07-1.84h-.67l.84-.84h.91Z"/><path class="cls-1" d="M163.24,46.2v1.89h-.77V46.3c0-.59-.29-.87-.78-.87a.87.87,0,0,0-.92,1v1.67H160v-3.3h.73v.43a1.43,1.43,0,0,1,1.14-.46A1.28,1.28,0,0,1,163.24,46.2Z"/><path class="cls-1" d="M167.28,46.69h-2.59a1,1,0,0,0,1.07.79,1.17,1.17,0,0,0,.89-.36l.42.48a1.86,1.86,0,0,1-3.15-1.16,1.63,1.63,0,0,1,1.7-1.68,1.6,1.6,0,0,1,1.67,1.7C167.29,46.52,167.28,46.62,167.28,46.69Zm-2.6-.51h1.87a.89.89,0,0,0-.93-.81A.92.92,0,0,0,164.68,46.18Z"/><path class="cls-1" d="M173.48,46.2v1.89h-.77V46.3c0-.59-.28-.87-.74-.87s-.86.33-.86,1v1.67h-.77V46.3c0-.59-.28-.87-.74-.87s-.86.33-.86,1v1.67H168v-3.3h.73v.42a1.39,1.39,0,0,1,1.08-.45,1.24,1.24,0,0,1,1.11.55,1.55,1.55,0,0,1,1.24-.55A1.27,1.27,0,0,1,173.48,46.2Z"/><path class="cls-1" d="M177.52,46.69h-2.59a1,1,0,0,0,1.07.79,1.17,1.17,0,0,0,.89-.36l.42.48a1.86,1.86,0,0,1-3.15-1.16,1.63,1.63,0,0,1,1.7-1.68,1.6,1.6,0,0,1,1.67,1.7C177.53,46.52,177.52,46.62,177.52,46.69Zm-2.59-.51h1.87a.94.94,0,0,0-1.87,0Z"/><path class="cls-1" d="M181.45,46.2v1.89h-.77V46.3c0-.59-.29-.87-.78-.87a.87.87,0,0,0-.92,1v1.67h-.77v-3.3h.73v.43a1.45,1.45,0,0,1,1.14-.46A1.28,1.28,0,0,1,181.45,46.2Z"/><path class="cls-1" d="M184.35,47.91a1.18,1.18,0,0,1-.74.22A1,1,0,0,1,182.48,47V45.44h-.55v-.62h.55v-.75h.77v.75h.88v.62h-.88V47c0,.32.16.5.45.5a.72.72,0,0,0,.44-.14Z"/><path class="cls-1" d="M184.82,43.79a.47.47,0,0,1,.49-.46.46.46,0,0,1,.5.44.48.48,0,0,1-.5.48A.47.47,0,0,1,184.82,43.79Zm.11,1h.77v3.3h-.77Z"/><path class="cls-1" d="M189.73,46.69h-2.58a1,1,0,0,0,1.06.79,1.21,1.21,0,0,0,.9-.36l.41.48a1.85,1.85,0,0,1-3.14-1.16,1.63,1.63,0,0,1,1.7-1.68,1.61,1.61,0,0,1,1.67,1.7A2,2,0,0,1,189.73,46.69Zm-2.59-.51H189a.9.9,0,0,0-.93-.81A.92.92,0,0,0,187.14,46.18Z"/><path class="cls-1" d="M190.42,43.51h.77v4.58h-.77Z"/><path class="cls-1" d="M69.07,33.68c0,2.93-2.3,4.64-6.69,4.64H53.89V21.24h8c4.09,0,6.29,1.73,6.29,4.44A4.1,4.1,0,0,1,66,29.44,4.2,4.2,0,0,1,69.07,33.68Zm-12-9.95v4.71h4.48c2.2,0,3.44-.78,3.44-2.35s-1.24-2.36-3.44-2.36Zm8.8,9.63c0-1.7-1.29-2.46-3.68-2.46H57.07v4.93h5.12C64.58,35.83,65.87,35.07,65.87,33.36Z"/><path class="cls-1" d="M83.53,34.36H75l-1.68,4H70l7.69-17.08h3.12l7.71,17.08H85.24Zm-1-2.48-3.22-7.47-3.19,7.47Z"/><path class="cls-1" d="M110,36.75v1.57H98V21.24h11.71V22.8H99.75v6.08h8.83v1.53H99.75v6.34Z"/><path class="cls-1" d="M128.22,21.24l-7.56,17.08h-1.78l-7.56-17.08h2l6.53,14.83,6.59-14.83Z"/><path class="cls-1" d="M142.76,36.75v1.57H130.68V21.24h11.71V22.8h-9.9v6.08h8.83v1.53h-8.83v6.34Z"/><path class="cls-1" d="M161.27,21.24V38.32h-1.48l-11-13.86V38.32H147V21.24h1.49l11,13.86V21.24Z"/><path class="cls-1" d="M170.15,22.8h-6V21.24H178V22.8h-6V38.32h-1.81Z"/><path class="cls-1" d="M178.93,36.24l.71-1.39a8.36,8.36,0,0,0,5.64,2.07c3.19,0,4.58-1.34,4.58-3,0-4.68-10.51-1.8-10.51-8.12,0-2.51,2-4.69,6.29-4.69a9.68,9.68,0,0,1,5.3,1.52l-.61,1.44a8.77,8.77,0,0,0-4.69-1.42c-3.12,0-4.51,1.39-4.51,3.1,0,4.68,10.51,1.85,10.51,8.07,0,2.52-2,4.66-6.36,4.66A9.27,9.27,0,0,1,178.93,36.24Z"/><path class="cls-2" d="M40.71,0H0V57.24H6.4a1.67,1.67,0,0,1,1.22-2.82H25.21a9,9,0,1,0,0-18.07h-12a1.68,1.68,0,1,1,0-3.35H25.88a4.12,4.12,0,1,0,0-8.24H4.79a1.68,1.68,0,0,1,0-3.35H25.88a7.47,7.47,0,0,1,5,13,12.37,12.37,0,0,1-2.14,22.84H40.71ZM5.94,29a1.68,1.68,0,0,1,3.35,0V48.4H24.91a2.86,2.86,0,1,0,0-5.71H13.2a1.68,1.68,0,1,1,0-3.35H24.91a6.21,6.21,0,1,1,0,12.41h-19Z"/><path class="cls-3" d="M26,30.16a1.3,1.3,0,1,0,0-2.6H12.86a1.3,1.3,0,1,0,0,2.6Z"/></g></g></svg>