<svg id="Layer_1" data-name="Layer 1" xmlns="http://www.w3.org/2000/svg" viewBox="0 0 489.19 295.46"><defs><style>.cls-1{fill:#251b45;}.cls-2,.cls-3{fill:#db215f;}.cls-3{font-size:40.93px;font-family:Montserrat-Bold, Montserrat;font-weight:700;}</style></defs><path class="cls-1" d="M406.87,182.07a19.86,19.86,0,0,0-39.39-.95,26.59,26.59,0,0,1-.11-2.82,39.77,39.77,0,0,1,54.51-36.58,45.51,45.51,0,0,1,30.53,43.44l-.77,81.18a11.71,11.71,0,0,0,11.25,12.4L406,278.2"/><path class="cls-1" d="M320.81,277.39l1.34-139.32h.1a39.72,39.72,0,0,1,14.33,2.83,45.54,45.54,0,0,1,30.54,43.45l-.78,81.17a11.77,11.77,0,0,0,11.25,12.41Z"/><path class="cls-1" d="M237.48,277.87H255.3v.07h42.41V121.76A42.43,42.43,0,0,0,255.3,79.31v.07H237.48l.21,0c10.16,1.13,17.61,10.16,17.61,20.38V257.46c0,10.22-7.45,19.26-17.61,20.39Z"/><circle class="cls-2" cx="261.24" cy="38.01" r="21.02"/><text class="cls-3" transform="translate(24.49 164.81)">TRAINING<tspan x="37.98" y="49.12">CENTER</tspan></text></svg>