<svg id="Layer_1" data-name="Layer 1" xmlns="http://www.w3.org/2000/svg" viewBox="0 0 625.02 295.46"><defs><style>.cls-1{fill:#e15e24;}.cls-2{font-size:86.76px;font-family:Montserrat-Regular, Montserrat;}.cls-2,.cls-3{fill:#272f62;}.cls-3{font-size:32.58px;font-family:Poppins-Light, Poppins;font-weight:300;}</style></defs><path class="cls-1" d="M12.48,61.41v51q0,26-.05,52v51.73h88.26s0,0,0,0A96.66,96.66,0,0,0,68.49,175l-15.42,4.83c10.4,6.14,19.41,13.7,26.47,23.86-9.19,0-17.84,0-26.49,0l-6,.05q-9.7.08-19.41.22c-2.05,0-2.95-.78-2.85-3,.17-3.62,0-7.25,0-10.87V175.37C61.31,172,90,157.53,111.31,138.84a152.62,152.62,0,0,0,37.8-50.37,118,118,0,0,0,8.95-27.06Zm85,12.41c4.47.17,8.94.05,13.8.05-10,24.36-42.06,57-86.38,61,0-4.69-.07-9.36.08-14,0-.51,1.31-1.28,2.1-1.4A95.19,95.19,0,0,0,58.37,109,94.07,94.07,0,0,0,93.2,76,4.22,4.22,0,0,1,97.48,73.82ZM24.81,77c-.07-2.29.67-3.21,2.93-3.19q10,.12,20.08.15c1.7,0,3.39,0,5.1,0,8.76,0,17.55,0,26.88,0C65.69,92.45,47.87,103.6,24.86,107.34V92.53C24.86,87.35,25,82.16,24.81,77Zm50.3,71.66c-4.06,1.76-8.16,3.46-12.28,5s-8.53,3.23-12.9,4.49c-4.53,1.33-9.17,2.41-13.83,3.31-3.56.68-7.23.92-11.2,1.4,0-4.81-.09-9.38.11-13.94,0-.61,1.56-1.57,2.48-1.67a121.26,121.26,0,0,0,30.65-7.71,116.75,116.75,0,0,0,25.65-14A121.18,121.18,0,0,0,124.43,76,2.93,2.93,0,0,1,127.7,74c1.64.05,3.26.09,4.93.09,3.05,0,6.28,0,10,0-1,1.79-1.89,3.58-2.8,5.32-3.29,6.33-6.33,12.33-9.86,18a172,172,0,0,1-14.78,20.38C111,122.65,105.94,126.85,101,131c-5.14,4.28-10.58,8.17-16,12.11a37.58,37.58,0,0,1-5.79,3.38"/><path class="cls-1" d="M145.41,215.74a41.68,41.68,0,0,0-1.51-5.89c-2.4-6.15-4.65-12.4-7.57-18.31a124.62,124.62,0,0,0-10.11-17.42c-5.32-7.43-11.38-14.36-17.14-21.54,2.8-2.32,5.78-4.82,8.8-7.35a1,1,0,0,0,.17-.13c11.27,10.64,20.74,24,27.73,37.41l.29.55c6,11.63,10.18,23.23,12.08,33"/><path class="cls-1" d="M129.64,216.29H116.8c-6.2-19.1-17.47-34.86-32.53-48.17l11.13-6.29C109.3,173.17,124.93,196.73,129.64,216.29Z"/><path class="cls-1" d="M12.19,61.33V216.6H167.48V61.33ZM154.76,203.89H24.91V74H154.76Z"/><text class="cls-2" transform="translate(183.88 162.19)">RESACILE</text><text class="cls-3" transform="translate(189.33 214.93)">RESERVATION FACILE</text></svg>