<svg xmlns="http://www.w3.org/2000/svg" xmlns:xlink="http://www.w3.org/1999/xlink" viewBox="0 0 637.84 190.52"><defs><style>.cls-1{fill:#fff;}.cls-2{fill:url(#Orange_Yellow);}</style><linearGradient id="Orange_Yellow" x1="38.46" y1="96.05" x2="90.85" y2="96.05" gradientUnits="userSpaceOnUse"><stop offset="0" stop-color="#ffef26"/><stop offset="0.02" stop-color="#ffea21"/><stop offset="0.1" stop-color="#fed70f"/><stop offset="0.19" stop-color="#fdcc04"/><stop offset="0.28" stop-color="#fdc800"/><stop offset="0.67" stop-color="#f18f34"/><stop offset="0.89" stop-color="#e95f32"/><stop offset="1" stop-color="#e3312d"/></linearGradient></defs><g id="Layer_2" data-name="Layer 2"><g id="Layer_1_copy" data-name="Layer 1 copy"><path class="cls-1" d="M190.73,157h-7.18l-1.42,3.32h-2.75l6.47-14.37h2.62L195,160.28h-2.79Zm-.88-2.1-2.71-6.28-2.69,6.28Z"/><path class="cls-1" d="M207.12,149.31v9.31c0,4-2.07,5.79-5.92,5.79a8.72,8.72,0,0,1-5.34-1.56l1.15-1.93a6.65,6.65,0,0,0,4.05,1.31c2.42,0,3.49-1.1,3.49-3.32v-.58a4.79,4.79,0,0,1-3.67,1.46,5.31,5.31,0,1,1,0-10.6,4.75,4.75,0,0,1,3.8,1.58v-1.46Zm-2.53,5.16a3.34,3.34,0,0,0-6.67,0,3.34,3.34,0,0,0,6.67,0Z"/><path class="cls-1" d="M220.55,155.62h-8.61a3.33,3.33,0,0,0,3.56,2.63,3.92,3.92,0,0,0,3-1.19l1.38,1.58a5.58,5.58,0,0,1-4.42,1.79c-3.67,0-6.06-2.37-6.06-5.63a5.46,5.46,0,0,1,5.67-5.61,5.35,5.35,0,0,1,5.55,5.67C220.59,155.07,220.57,155.37,220.55,155.62Zm-8.63-1.7h6.23a3,3,0,0,0-3.11-2.67A3,3,0,0,0,211.92,153.92Z"/><path class="cls-1" d="M233.65,154v6.28h-2.57v-5.95c0-2-1-2.9-2.61-2.9-1.83,0-3.06,1.11-3.06,3.31v5.54h-2.56v-11h2.44v1.42a4.79,4.79,0,0,1,3.78-1.54C231.7,149.19,233.65,150.69,233.65,154Z"/><path class="cls-1" d="M235.9,154.8c0-3.29,2.47-5.61,5.94-5.61a4.92,4.92,0,0,1,4.68,2.55l-2,1.15a3.1,3.1,0,0,0-2.73-1.52,3.43,3.43,0,0,0,0,6.86,3.1,3.1,0,0,0,2.73-1.52l2,1.15a5,5,0,0,1-4.68,2.57C238.37,160.43,235.9,158.09,235.9,154.8Z"/><path class="cls-1" d="M258.64,155.62H250a3.32,3.32,0,0,0,3.55,2.63,3.93,3.93,0,0,0,3-1.19l1.38,1.58a5.58,5.58,0,0,1-4.42,1.79c-3.67,0-6.06-2.37-6.06-5.63a5.46,5.46,0,0,1,5.67-5.61,5.35,5.35,0,0,1,5.55,5.67C258.68,155.07,258.66,155.37,258.64,155.62Zm-8.63-1.7h6.22a3,3,0,0,0-3.1-2.67A3,3,0,0,0,250,153.92Z"/><path class="cls-1" d="M277.14,145v15.24h-2.47v-1.41a4.53,4.53,0,0,1-3.63,1.56,5.62,5.62,0,0,1,0-11.24,4.48,4.48,0,0,1,3.53,1.48V145Zm-2.53,9.76a3.27,3.27,0,1,0-3.26,3.43A3.2,3.2,0,0,0,274.61,154.8Z"/><path class="cls-1" d="M290.57,155.62H282a3.32,3.32,0,0,0,3.55,2.63,3.93,3.93,0,0,0,3-1.19l1.38,1.58a5.58,5.58,0,0,1-4.42,1.79c-3.67,0-6.06-2.37-6.06-5.63a5.46,5.46,0,0,1,5.67-5.61,5.35,5.35,0,0,1,5.55,5.67C290.61,155.07,290.59,155.37,290.57,155.62Zm-8.63-1.7h6.22a3,3,0,0,0-3.1-2.67A3,3,0,0,0,281.94,153.92Z"/><path class="cls-1" d="M297.42,154.8c0-3.29,2.47-5.61,5.94-5.61a4.93,4.93,0,0,1,4.68,2.55l-2,1.15a3.11,3.11,0,0,0-2.73-1.52,3.43,3.43,0,0,0,0,6.86,3.11,3.11,0,0,0,2.73-1.52l2,1.15a5,5,0,0,1-4.68,2.57C299.89,160.43,297.42,158.09,297.42,154.8Z"/><path class="cls-1" d="M309,154.8a5.85,5.85,0,1,1,5.83,5.63A5.52,5.52,0,0,1,309,154.8Zm9.1,0a3.26,3.26,0,1,0-3.27,3.43A3.19,3.19,0,0,0,318.08,154.8Z"/><path class="cls-1" d="M341.27,154v6.28H338.7v-5.95c0-2-.91-2.9-2.47-2.9s-2.85,1.11-2.85,3.29v5.56h-2.57v-5.95c0-2-.9-2.9-2.46-2.9-1.71,0-2.86,1.11-2.86,3.29v5.56h-2.57v-11h2.45v1.4a4.55,4.55,0,0,1,3.59-1.52,4.12,4.12,0,0,1,3.7,1.83,5.11,5.11,0,0,1,4.11-1.83C339.42,149.19,341.27,150.69,341.27,154Z"/><path class="cls-1" d="M362.68,154v6.28h-2.57v-5.95c0-2-.9-2.9-2.46-2.9s-2.86,1.11-2.86,3.29v5.56h-2.56v-5.95c0-2-.91-2.9-2.47-2.9s-2.85,1.11-2.85,3.29v5.56h-2.57v-11h2.44v1.4a4.59,4.59,0,0,1,3.6-1.52,4.13,4.13,0,0,1,3.7,1.83,5.11,5.11,0,0,1,4.1-1.83C360.83,149.19,362.68,150.69,362.68,154Z"/><path class="cls-1" d="M376.37,149.31v11h-2.44v-1.39a4.49,4.49,0,0,1-3.53,1.54c-2.82,0-4.73-1.54-4.73-4.85v-6.27h2.57v5.92c0,2,.95,2.94,2.57,2.94,1.79,0,3-1.11,3-3.31v-5.55Z"/><path class="cls-1" d="M390.34,154v6.28h-2.57v-5.95c0-2-1-2.9-2.61-2.9-1.83,0-3.06,1.11-3.06,3.31v5.54h-2.57v-11H382v1.42a4.79,4.79,0,0,1,3.78-1.54C388.39,149.19,390.34,150.69,390.34,154Z"/><path class="cls-1" d="M393,146a1.56,1.56,0,0,1,1.65-1.54,1.52,1.52,0,0,1,1.64,1.48A1.65,1.65,0,0,1,393,146Zm.35,3.34H396v11h-2.57Z"/><path class="cls-1" d="M398.22,154.8c0-3.29,2.46-5.61,5.93-5.61a4.93,4.93,0,0,1,4.69,2.55l-2,1.15a3.11,3.11,0,0,0-2.74-1.52,3.43,3.43,0,0,0,0,6.86,3.11,3.11,0,0,0,2.74-1.52l2,1.15a5,5,0,0,1-4.69,2.57C400.68,160.43,398.22,158.09,398.22,154.8Z"/><path class="cls-1" d="M420,153.85v6.43H417.6V159a3.88,3.88,0,0,1-3.45,1.48c-2.5,0-4.08-1.38-4.08-3.29s1.23-3.27,4.56-3.27h2.83v-.16c0-1.5-.9-2.38-2.73-2.38a5.43,5.43,0,0,0-3.33,1.09l-1-1.87a7.71,7.71,0,0,1,4.65-1.36C418.2,149.19,420,150.69,420,153.85Zm-2.57,3v-1.27h-2.65c-1.75,0-2.22.66-2.22,1.46s.78,1.52,2.1,1.52A2.8,2.8,0,0,0,417.46,156.85Z"/><path class="cls-1" d="M429.7,159.69a4.07,4.07,0,0,1-2.47.74c-2.4,0-3.78-1.28-3.78-3.7v-5.28h-1.8v-2h1.8v-2.51H426v2.51H429v2H426v5.22c0,1.07.54,1.64,1.52,1.64a2.29,2.29,0,0,0,1.44-.45Z"/><path class="cls-1" d="M431.26,146a1.55,1.55,0,0,1,1.64-1.54,1.52,1.52,0,0,1,1.64,1.48,1.64,1.64,0,0,1-3.28.06Zm.35,3.34h2.56v11h-2.56Z"/><path class="cls-1" d="M436.43,154.8a5.85,5.85,0,1,1,5.83,5.63A5.52,5.52,0,0,1,436.43,154.8Zm9.1,0a3.26,3.26,0,1,0-3.27,3.43A3.19,3.19,0,0,0,445.53,154.8Z"/><path class="cls-1" d="M461.18,154v6.28h-2.57v-5.95c0-2-1-2.9-2.61-2.9-1.83,0-3.06,1.11-3.06,3.31v5.54h-2.57v-11h2.45v1.42a4.78,4.78,0,0,1,3.78-1.54C459.23,149.19,461.18,150.69,461.18,154Z"/><path class="cls-1" d="M480,155.62h-8.6a3.32,3.32,0,0,0,3.55,2.63,3.94,3.94,0,0,0,3-1.19l1.38,1.58a5.58,5.58,0,0,1-4.42,1.79c-3.68,0-6.06-2.37-6.06-5.63a5.45,5.45,0,0,1,5.67-5.61,5.36,5.36,0,0,1,5.55,5.67C480,155.07,480,155.37,480,155.62Zm-8.62-1.7h6.22a3,3,0,0,0-3.1-2.67A3,3,0,0,0,471.34,153.92Z"/><path class="cls-1" d="M488.85,159.69a4,4,0,0,1-2.46.74c-2.4,0-3.78-1.28-3.78-3.7v-5.28H480.8v-2h1.81v-2.51h2.57v2.51h2.93v2h-2.93v5.22c0,1.07.53,1.64,1.52,1.64a2.33,2.33,0,0,0,1.44-.45Z"/><path class="cls-1" d="M506.49,155.62h-8.6a3.31,3.31,0,0,0,3.55,2.63,3.94,3.94,0,0,0,3-1.19l1.37,1.58a5.54,5.54,0,0,1-4.41,1.79c-3.68,0-6.06-2.37-6.06-5.63a5.45,5.45,0,0,1,5.67-5.61,5.35,5.35,0,0,1,5.54,5.67C506.53,155.07,506.51,155.37,506.49,155.62Zm-8.62-1.7h6.22a3,3,0,0,0-3.1-2.67A3,3,0,0,0,497.87,153.92Zm3.55-6.1H499.2L502,145h3Z"/><path class="cls-1" d="M518.85,149.31l-4.7,11H511.5l-4.7-11h2.67l3.41,8.14,3.51-8.14Z"/><path class="cls-1" d="M530.21,155.62H521.6a3.33,3.33,0,0,0,3.56,2.63,3.92,3.92,0,0,0,3-1.19l1.38,1.58a5.58,5.58,0,0,1-4.42,1.79c-3.67,0-6.06-2.37-6.06-5.63a5.46,5.46,0,0,1,5.67-5.61,5.35,5.35,0,0,1,5.55,5.67C530.25,155.07,530.23,155.37,530.21,155.62Zm-8.63-1.7h6.23a3,3,0,0,0-3.11-2.67A3,3,0,0,0,521.58,153.92Zm3.56-6.1h-2.22l2.77-2.82h3Z"/><path class="cls-1" d="M543.31,154v6.28h-2.57v-5.95c0-2-1-2.9-2.61-2.9-1.83,0-3.06,1.11-3.06,3.31v5.54H532.5v-11H535v1.42a4.79,4.79,0,0,1,3.78-1.54C541.36,149.19,543.31,150.69,543.31,154Z"/><path class="cls-1" d="M556.74,155.62h-8.61a3.32,3.32,0,0,0,3.55,2.63,3.93,3.93,0,0,0,3-1.19l1.38,1.58a5.58,5.58,0,0,1-4.42,1.79c-3.67,0-6.06-2.37-6.06-5.63a5.46,5.46,0,0,1,5.67-5.61,5.35,5.35,0,0,1,5.55,5.67C556.78,155.07,556.76,155.37,556.74,155.62Zm-8.63-1.7h6.22a3,3,0,0,0-3.1-2.67A3,3,0,0,0,548.11,153.92Z"/><path class="cls-1" d="M577.38,154v6.28h-2.57v-5.95c0-2-.91-2.9-2.47-2.9s-2.85,1.11-2.85,3.29v5.56h-2.57v-5.95c0-2-.9-2.9-2.46-2.9-1.71,0-2.86,1.11-2.86,3.29v5.56H559v-11h2.45v1.4a4.55,4.55,0,0,1,3.59-1.52,4.12,4.12,0,0,1,3.7,1.83,5.11,5.11,0,0,1,4.11-1.83C575.53,149.19,577.38,150.69,577.38,154Z"/><path class="cls-1" d="M590.82,155.62h-8.6a3.31,3.31,0,0,0,3.55,2.63,3.94,3.94,0,0,0,3-1.19l1.37,1.58a5.54,5.54,0,0,1-4.41,1.79c-3.68,0-6.06-2.37-6.06-5.63a5.45,5.45,0,0,1,5.67-5.61,5.35,5.35,0,0,1,5.54,5.67C590.86,155.07,590.84,155.37,590.82,155.62Zm-8.62-1.7h6.22a3,3,0,0,0-3.1-2.67A3,3,0,0,0,582.2,153.92Z"/><path class="cls-1" d="M603.92,154v6.28h-2.56v-5.95c0-2-1-2.9-2.61-2.9-1.83,0-3.06,1.11-3.06,3.31v5.54h-2.57v-11h2.44v1.42a4.81,4.81,0,0,1,3.78-1.54C602,149.19,603.92,150.69,603.92,154Z"/><path class="cls-1" d="M613.57,159.69a4,4,0,0,1-2.46.74c-2.41,0-3.78-1.28-3.78-3.7v-5.28h-1.81v-2h1.81v-2.51h2.57v2.51h2.93v2H609.9v5.22c0,1.07.53,1.64,1.52,1.64a2.28,2.28,0,0,0,1.43-.45Z"/><path class="cls-1" d="M615.13,146a1.56,1.56,0,0,1,1.64-1.54,1.53,1.53,0,0,1,1.65,1.48,1.65,1.65,0,0,1-3.29.06Zm.35,3.34h2.57v11h-2.57Z"/><path class="cls-1" d="M631.48,155.62h-8.61a3.33,3.33,0,0,0,3.56,2.63,3.92,3.92,0,0,0,3-1.19l1.38,1.58a5.58,5.58,0,0,1-4.42,1.79c-3.67,0-6.06-2.37-6.06-5.63a5.46,5.46,0,0,1,5.67-5.61,5.35,5.35,0,0,1,5.55,5.67C631.52,155.07,631.5,155.37,631.48,155.62Zm-8.63-1.7h6.22a3,3,0,0,0-3.1-2.67A3,3,0,0,0,622.85,153.92Z"/><path class="cls-1" d="M633.77,145h2.57v15.24h-2.57Z"/><path class="cls-1" d="M229.87,112.1c0,9.74-7.63,15.42-22.24,15.42H179.38V70.69H206c13.64,0,20.95,5.77,20.95,14.78A13.6,13.6,0,0,1,219.64,98C225.73,99.92,229.87,104.71,229.87,112.1ZM189.93,79V94.64h14.94c7.3,0,11.44-2.59,11.44-7.79S212.17,79,204.87,79ZM219.24,111c0-5.68-4.31-8.2-12.26-8.2h-17v16.4h17C214.93,119.24,219.24,116.73,219.24,111Z"/><path class="cls-1" d="M278,114.37H249.6L244,127.52H233.12l25.57-56.83h10.4l25.65,56.83h-11Zm-3.49-8.28L263.81,81.25l-10.64,24.84Z"/><path class="cls-1" d="M366.18,122.33v5.19H326V70.69h39v5.2H332V96.1h29.38v5.12H332v21.11Z"/><path class="cls-1" d="M426.75,70.69l-25.17,56.83h-5.92L370.49,70.69H377l21.76,49.36,21.92-49.36Z"/><path class="cls-1" d="M475.14,122.33v5.19H435V70.69h39v5.2H441V96.1h29.39v5.12H441v21.11Z"/><path class="cls-1" d="M536.76,70.69v56.83h-5L495.27,81.41v46.11h-6V70.69h5l36.61,46.12V70.69Z"/><path class="cls-1" d="M566.31,75.89h-20v-5.2h45.95v5.2h-20v51.63h-6Z"/><path class="cls-1" d="M595.54,120.62l2.35-4.62c4.06,4,11.29,6.9,18.76,6.9,10.63,0,15.26-4.47,15.26-10.07,0-15.59-35-6-35-27,0-8.36,6.49-15.58,20.94-15.58,6.42,0,13.08,1.86,17.62,5l-2,4.79a29.22,29.22,0,0,0-15.59-4.71c-10.39,0-15,4.63-15,10.31,0,15.59,35,6.17,35,26.87,0,8.37-6.66,15.51-21.19,15.51C608.12,128,599.76,125,595.54,120.62Z"/><path class="cls-1" d="M135.51,0H0V190.52H21.3a5.57,5.57,0,0,1,4.05-9.41H83.92a30.06,30.06,0,0,0,0-60.12h-40a5.58,5.58,0,1,1,0-11.15h42.2a13.72,13.72,0,0,0,0-27.44H16a5.58,5.58,0,0,1,0-11.15H86.13a24.85,24.85,0,0,1,16.75,43.23,41.19,41.19,0,0,1-7.12,76h39.75ZM19.77,96.53a5.58,5.58,0,1,1,11.15,0v64.55h52c5.63,0,10.21-4.26,10.21-9.5s-4.58-9.51-10.21-9.51h-39a5.58,5.58,0,1,1,0-11.15h39c11.78,0,21.36,9.27,21.36,20.66s-9.58,20.65-21.36,20.65H19.77Z"/><path class="cls-2" d="M86.51,100.39a4.34,4.34,0,0,0,0-8.68H42.8a4.34,4.34,0,1,0,0,8.68Z"/></g></g></svg>